<?xml version="1.0" encoding="utf-8"?>
<!-- Svg Vector Icons : http://www.onlinewebfonts.com/icon -->
<!DOCTYPE svg PUBLIC "-//W3C//DTD SVG 1.1//EN" "http://www.w3.org/Graphics/SVG/1.1/DTD/svg11.dtd">
<svg version="1.1" fill="#ffffff"
xmlns="http://www.w3.org/2000/svg" xmlns:xlink="http://www.w3.org/1999/xlink" x="0px" y="0px" viewBox="0 0 1000 1000" enable-background="new 0 0 1000 1000" xml:space="preserve">
<metadata> Svg Vector Icons : http://www.onlinewebfonts.com/icon </metadata>
<g><g transform="translate(0.000000,511.000000) scale(0.100000,-0.100000)"><path d="M6429.6,3551.3L4994.2,2095.6L3535.5,3536.8L2074,4978l-987-992.8l-987-995.7l1461.5-1438.3L3020.2,110L1579-1348.6L137.8-2810.2l992.8-987l995.7-987l1438.3,1461.5L5005.8-1864l1458.6-1441.2L7926-4746.4l987,992.8l987,995.7L8438.4-1316.6L6979.8,121.6l1438.3,1458.6l1441.2,1461.6l-660.9,663.8c-363.9,366.8-812.3,806.5-998.6,981.2L7862,5004.2L6429.6,3551.3z M8662.6,3804.7l765.7-765.7L7987.2,1580.3L6543.1,121.6l1461.6-1444.1l1464.5-1441.2l-774.4-774.5l-771.5-774.4L6464.5-2871.4L5005.8-1427.3L3561.7-2888.8L2120.6-4353.3l-774.5,774.5l-774.5,771.5l1441.2,1458.7L3456.9,110L1995.4,1554.1L530.9,2995.3l774.5,774.5l771.5,774.5L3535.5,3103l1458.6-1444.1l1435.4,1455.7c786.1,800.7,1441.2,1455.7,1449.9,1455.7C7888.2,4570.4,8243.4,4226.8,8662.6,3804.7z"/></g></g>
</svg>